<?xml version="1.0" encoding="UTF-8"?>
<svg xmlns="http://www.w3.org/2000/svg" viewBox="0 0 128 128" width="128" height="128">
  <defs>
    <linearGradient id="grad1" x1="0%" y1="0%" x2="100%" y2="100%">
      <stop offset="0%" style="stop-color:#6366f1;stop-opacity:1" />
      <stop offset="100%" style="stop-color:#8b5cf6;stop-opacity:1" />
    </linearGradient>
    <linearGradient id="grad2" x1="0%" y1="0%" x2="100%" y2="100%">
      <stop offset="0%" style="stop-color:#8b5cf6;stop-opacity:1" />
      <stop offset="100%" style="stop-color:#ec4899;stop-opacity:1" />
    </linearGradient>
  </defs>
  
  <!-- Background circle -->
  <circle cx="64" cy="64" r="60" fill="url(#grad1)" opacity="0.1"/>
  
  <!-- Main code bracket (left) -->
  <path d="M 32 24 L 24 24 L 24 64 L 24 104 L 32 104" 
        stroke="url(#grad1)" 
        stroke-width="6" 
        stroke-linecap="round" 
        fill="none"/>
  
  <!-- Mirrored code bracket (right) -->
  <path d="M 96 24 L 104 24 L 104 64 L 104 104 L 96 104" 
        stroke="url(#grad2)" 
        stroke-width="6" 
        stroke-linecap="round" 
        fill="none"/>
  
  <!-- Connection lines between brackets (representing digital twin connection) -->
  <line x1="32" y1="40" x2="96" y2="40" 
        stroke="url(#grad1)" 
        stroke-width="3" 
        opacity="0.6" 
        stroke-linecap="round"/>
  <line x1="32" y1="64" x2="96" y2="64" 
        stroke="url(#grad1)" 
        stroke-width="3" 
        opacity="0.8" 
        stroke-linecap="round"/>
  <line x1="32" y1="88" x2="96" y2="88" 
        stroke="url(#grad1)" 
        stroke-width="3" 
        opacity="0.6" 
        stroke-linecap="round"/>
  
  <!-- AI/Digital elements - small dots representing data flow -->
  <circle cx="40" cy="52" r="2" fill="#6366f1" opacity="0.8"/>
  <circle cx="88" cy="52" r="2" fill="#8b5cf6" opacity="0.8"/>
  <circle cx="40" cy="76" r="2" fill="#6366f1" opacity="0.8"/>
  <circle cx="88" cy="76" r="2" fill="#8b5cf6" opacity="0.8"/>
  
  <!-- Central connection point -->
  <circle cx="64" cy="64" r="4" fill="url(#grad1)"/>
</svg>
